
<svg width="100" height="100" viewBox="0 0 100 100" fill="none" xmlns="http://www.w3.org/2000/svg">
  <path d="M20,30 L10,10 L25,25 Q35,15 50,15 Q65,15 75,25 L90,10 L80,30 Q85,40 85,50 Q85,70 70,80 Q60,85 50,85 Q40,85 30,80 Q15,70 15,50 Q15,40 20,30 Z" fill="#7E69AB"/>
  <path d="M30,45 Q35,40 40,45" stroke="white" stroke-width="2" fill="none"/>
  <path d="M60,45 Q65,40 70,45" stroke="white" stroke-width="2" fill="none"/>
  <path d="M40,65 Q50,70 60,65" stroke="white" stroke-width="2" fill="none"/>
  <path d="M50,55 L50,65" stroke="white" stroke-width="2" fill="none"/>
  <path d="M20,35 L10,30" stroke="white" stroke-width="2" fill="none"/>
  <path d="M80,35 L90,30" stroke="white" stroke-width="2" fill="none"/>
</svg>
